<mxfile host="app.diagrams.net" modified="2021-12-18T16:11:02.402Z" agent="5.0 (Macintosh; Intel Mac OS X 10_15_7) AppleWebKit/537.36 (KHTML, like Gecko) Chrome/96.0.4664.110 Safari/537.36" etag="IjazJWRxTXx09wCbjJ-X" version="16.0.0" type="github">
  <diagram id="HMQUQqkeBuXl7HOtAv_w" name="Page-1">
    <mxGraphModel dx="1989" dy="1161" grid="1" gridSize="10" guides="1" tooltips="1" connect="1" arrows="1" fold="1" page="1" pageScale="1" pageWidth="850" pageHeight="1100" math="0" shadow="0">
      <root>
        <mxCell id="0" />
        <mxCell id="1" parent="0" />
        <mxCell id="JEM1uBJuGhzrmeaaOTEr-22" value="" style="rounded=1;whiteSpace=wrap;html=1;arcSize=5;" vertex="1" parent="1">
          <mxGeometry x="260" y="251.5" width="390" height="468.5" as="geometry" />
        </mxCell>
        <mxCell id="JEM1uBJuGhzrmeaaOTEr-3" value="" style="rounded=1;whiteSpace=wrap;html=1;arcSize=5;" vertex="1" parent="1">
          <mxGeometry x="20" y="270" width="218" height="450" as="geometry" />
        </mxCell>
        <mxCell id="JEM1uBJuGhzrmeaaOTEr-6" style="edgeStyle=orthogonalEdgeStyle;rounded=0;orthogonalLoop=1;jettySize=auto;html=1;" edge="1" parent="1" source="JEM1uBJuGhzrmeaaOTEr-1" target="JEM1uBJuGhzrmeaaOTEr-4">
          <mxGeometry relative="1" as="geometry" />
        </mxCell>
        <mxCell id="JEM1uBJuGhzrmeaaOTEr-7" value="Metrics" style="edgeLabel;html=1;align=center;verticalAlign=middle;resizable=0;points=[];" vertex="1" connectable="0" parent="JEM1uBJuGhzrmeaaOTEr-6">
          <mxGeometry x="-0.2613" y="2" relative="1" as="geometry">
            <mxPoint x="1" as="offset" />
          </mxGeometry>
        </mxCell>
        <mxCell id="JEM1uBJuGhzrmeaaOTEr-1" value="MicroDev" style="verticalLabelPosition=bottom;sketch=0;aspect=fixed;html=1;verticalAlign=top;strokeColor=none;align=center;outlineConnect=0;shape=mxgraph.citrix.proxy_server;" vertex="1" parent="1">
          <mxGeometry x="70" y="347" width="76.5" height="90" as="geometry" />
        </mxCell>
        <mxCell id="JEM1uBJuGhzrmeaaOTEr-2" value="" style="html=1;verticalLabelPosition=bottom;align=center;labelBackgroundColor=#ffffff;verticalAlign=top;strokeWidth=2;strokeColor=#0080F0;shadow=0;dashed=0;shape=mxgraph.ios7.icons.home;" vertex="1" parent="1">
          <mxGeometry x="40" y="260" width="24" height="25.5" as="geometry" />
        </mxCell>
        <mxCell id="JEM1uBJuGhzrmeaaOTEr-11" value="trigger" style="edgeStyle=orthogonalEdgeStyle;rounded=0;orthogonalLoop=1;jettySize=auto;html=1;" edge="1" parent="1" source="JEM1uBJuGhzrmeaaOTEr-4" target="JEM1uBJuGhzrmeaaOTEr-10">
          <mxGeometry relative="1" as="geometry" />
        </mxCell>
        <mxCell id="JEM1uBJuGhzrmeaaOTEr-4" value="CloudWatch" style="outlineConnect=0;dashed=0;verticalLabelPosition=bottom;verticalAlign=top;align=center;html=1;shape=mxgraph.aws3.cloudwatch;fillColor=#759C3E;gradientColor=none;" vertex="1" parent="1">
          <mxGeometry x="290" y="351.5" width="82.5" height="93" as="geometry" />
        </mxCell>
        <mxCell id="JEM1uBJuGhzrmeaaOTEr-9" value="" style="outlineConnect=0;dashed=0;verticalLabelPosition=bottom;verticalAlign=top;align=center;html=1;shape=mxgraph.aws3.cloud_2;fillColor=#F58534;gradientColor=none;" vertex="1" parent="1">
          <mxGeometry x="280" y="240" width="40" height="30" as="geometry" />
        </mxCell>
        <mxCell id="JEM1uBJuGhzrmeaaOTEr-14" style="edgeStyle=orthogonalEdgeStyle;rounded=0;orthogonalLoop=1;jettySize=auto;html=1;" edge="1" parent="1" source="JEM1uBJuGhzrmeaaOTEr-10" target="JEM1uBJuGhzrmeaaOTEr-13">
          <mxGeometry relative="1" as="geometry">
            <Array as="points">
              <mxPoint x="589" y="512.5" />
            </Array>
          </mxGeometry>
        </mxCell>
        <mxCell id="JEM1uBJuGhzrmeaaOTEr-15" value="trigger" style="edgeLabel;html=1;align=center;verticalAlign=middle;resizable=0;points=[];" vertex="1" connectable="0" parent="JEM1uBJuGhzrmeaaOTEr-14">
          <mxGeometry x="-0.2956" relative="1" as="geometry">
            <mxPoint as="offset" />
          </mxGeometry>
        </mxCell>
        <mxCell id="JEM1uBJuGhzrmeaaOTEr-19" style="edgeStyle=orthogonalEdgeStyle;rounded=0;orthogonalLoop=1;jettySize=auto;html=1;entryX=1;entryY=0.5;entryDx=0;entryDy=0;entryPerimeter=0;" edge="1" parent="1" source="JEM1uBJuGhzrmeaaOTEr-10" target="JEM1uBJuGhzrmeaaOTEr-18">
          <mxGeometry relative="1" as="geometry">
            <Array as="points">
              <mxPoint x="589" y="300.5" />
            </Array>
          </mxGeometry>
        </mxCell>
        <mxCell id="JEM1uBJuGhzrmeaaOTEr-10" value="Alarm" style="sketch=0;outlineConnect=0;fontColor=#232F3E;gradientColor=none;fillColor=#B0084D;strokeColor=none;dashed=0;verticalLabelPosition=bottom;verticalAlign=top;align=center;html=1;fontSize=12;fontStyle=0;aspect=fixed;pointerEvents=1;shape=mxgraph.aws4.alarm;" vertex="1" parent="1">
          <mxGeometry x="550" y="359" width="78" height="78" as="geometry" />
        </mxCell>
        <mxCell id="JEM1uBJuGhzrmeaaOTEr-16" style="edgeStyle=orthogonalEdgeStyle;rounded=0;orthogonalLoop=1;jettySize=auto;html=1;" edge="1" parent="1" source="JEM1uBJuGhzrmeaaOTEr-13" target="JEM1uBJuGhzrmeaaOTEr-1">
          <mxGeometry relative="1" as="geometry">
            <Array as="points">
              <mxPoint x="280" y="511" />
              <mxPoint x="280" y="430" />
            </Array>
          </mxGeometry>
        </mxCell>
        <mxCell id="JEM1uBJuGhzrmeaaOTEr-17" value="Reboot&lt;br&gt;command" style="edgeLabel;html=1;align=center;verticalAlign=middle;resizable=0;points=[];" vertex="1" connectable="0" parent="JEM1uBJuGhzrmeaaOTEr-16">
          <mxGeometry x="-0.4949" y="1" relative="1" as="geometry">
            <mxPoint x="1" as="offset" />
          </mxGeometry>
        </mxCell>
        <mxCell id="JEM1uBJuGhzrmeaaOTEr-13" value="SSM&lt;br&gt;Run-commands" style="sketch=0;outlineConnect=0;fontColor=#232F3E;gradientColor=none;fillColor=#B0084D;strokeColor=none;dashed=0;verticalLabelPosition=bottom;verticalAlign=top;align=center;html=1;fontSize=12;fontStyle=0;aspect=fixed;pointerEvents=1;shape=mxgraph.aws4.automation;" vertex="1" parent="1">
          <mxGeometry x="420" y="471.5" width="78" height="78" as="geometry" />
        </mxCell>
        <mxCell id="JEM1uBJuGhzrmeaaOTEr-21" style="edgeStyle=orthogonalEdgeStyle;rounded=0;orthogonalLoop=1;jettySize=auto;html=1;entryX=1;entryY=0.5;entryDx=0;entryDy=0;entryPerimeter=0;" edge="1" parent="1" source="JEM1uBJuGhzrmeaaOTEr-18" target="JEM1uBJuGhzrmeaaOTEr-24">
          <mxGeometry relative="1" as="geometry">
            <mxPoint x="132.5" y="225" as="targetPoint" />
            <Array as="points">
              <mxPoint x="458" y="227" />
            </Array>
          </mxGeometry>
        </mxCell>
        <mxCell id="JEM1uBJuGhzrmeaaOTEr-23" value="MSN" style="edgeLabel;html=1;align=center;verticalAlign=middle;resizable=0;points=[];" vertex="1" connectable="0" parent="JEM1uBJuGhzrmeaaOTEr-21">
          <mxGeometry x="-0.0667" y="-1" relative="1" as="geometry">
            <mxPoint as="offset" />
          </mxGeometry>
        </mxCell>
        <mxCell id="JEM1uBJuGhzrmeaaOTEr-18" value="SNS" style="outlineConnect=0;dashed=0;verticalLabelPosition=bottom;verticalAlign=top;align=center;html=1;shape=mxgraph.aws3.sns;fillColor=#D9A741;gradientColor=none;" vertex="1" parent="1">
          <mxGeometry x="420" y="262" width="76.5" height="76.5" as="geometry" />
        </mxCell>
        <mxCell id="JEM1uBJuGhzrmeaaOTEr-24" value="" style="verticalLabelPosition=bottom;html=1;verticalAlign=top;align=center;strokeColor=none;fillColor=#00BEF2;shape=mxgraph.azure.mobile;pointerEvents=1;" vertex="1" parent="1">
          <mxGeometry x="100" y="201.5" width="35" height="50" as="geometry" />
        </mxCell>
        <mxCell id="JEM1uBJuGhzrmeaaOTEr-27" style="edgeStyle=orthogonalEdgeStyle;rounded=0;orthogonalLoop=1;jettySize=auto;html=1;entryX=0;entryY=0.5;entryDx=0;entryDy=0;entryPerimeter=0;" edge="1" parent="1" source="JEM1uBJuGhzrmeaaOTEr-25" target="JEM1uBJuGhzrmeaaOTEr-26">
          <mxGeometry relative="1" as="geometry" />
        </mxCell>
        <mxCell id="JEM1uBJuGhzrmeaaOTEr-28" value="BackUp" style="edgeLabel;html=1;align=center;verticalAlign=middle;resizable=0;points=[];" vertex="1" connectable="0" parent="JEM1uBJuGhzrmeaaOTEr-27">
          <mxGeometry x="0.1895" y="2" relative="1" as="geometry">
            <mxPoint x="-103" y="2" as="offset" />
          </mxGeometry>
        </mxCell>
        <mxCell id="JEM1uBJuGhzrmeaaOTEr-29" style="edgeStyle=orthogonalEdgeStyle;rounded=0;orthogonalLoop=1;jettySize=auto;html=1;" edge="1" parent="1" source="JEM1uBJuGhzrmeaaOTEr-25">
          <mxGeometry relative="1" as="geometry">
            <mxPoint x="420" y="770" as="targetPoint" />
            <Array as="points">
              <mxPoint x="280" y="640" />
              <mxPoint x="280" y="770" />
            </Array>
          </mxGeometry>
        </mxCell>
        <mxCell id="JEM1uBJuGhzrmeaaOTEr-25" value="NAS" style="sketch=0;pointerEvents=1;shadow=0;dashed=0;html=1;strokeColor=none;fillColor=#005F4B;labelPosition=center;verticalLabelPosition=bottom;verticalAlign=top;align=center;outlineConnect=0;shape=mxgraph.veeam2.nas;" vertex="1" parent="1">
          <mxGeometry x="70" y="600" width="61.75" height="80" as="geometry" />
        </mxCell>
        <mxCell id="JEM1uBJuGhzrmeaaOTEr-26" value="S3" style="outlineConnect=0;dashed=0;verticalLabelPosition=bottom;verticalAlign=top;align=center;html=1;shape=mxgraph.aws3.s3;fillColor=#E05243;gradientColor=none;" vertex="1" parent="1">
          <mxGeometry x="420" y="593.5" width="76.5" height="93" as="geometry" />
        </mxCell>
        <mxCell id="JEM1uBJuGhzrmeaaOTEr-30" value="AliCloud&#xa;OSS" style="shape=image;verticalLabelPosition=bottom;labelBackgroundColor=#ffffff;verticalAlign=top;aspect=fixed;imageAspect=0;image=data:image/png,iVBORw0KGgoAAAANSUhEUgAAAMgAAADICAMAAACahl6sAAAAdVBMVEX/////agD/tH//rnT/qWz/j0D/yaL/kkX/gSj/59X/5NH/bwj/xp7/gyv/07P/zKj/wpf/oF3/m1P/3sf/eRr/7N//6tv/cQz/v5L/2b//1LX/uon/nVf/o2L/sXn/fSD/ijf/+PP/8+v/l0z/vI3/jDv/qm4+YXxNAAAF6ElEQVR4nO2d6XqyMBCFG6TuCyiIS63idv+X+NnaxzaIMMmcJN+PeS8APCWTTM5M0rc3QRAEQRAEQRAEQRAEQRAEQRAEQaBwXHSjTpzOe72POFrNNoMy9C8yZ5ikk0I9UUxO8WoZ+sdRGZ7n2bOGP/Q702PoH9lGOb1OGkX8MDoleejf2sA6bv4Uupb5+P/8Lsfkna7iTrFbhP7VT5Rbg4/xh3Qd+pfrnPtWMr6Yb0L/+F/GpAB/yccwtIA7izlLxo1iG1rDjTIacXXceA8+vjYHgIwvOmF1RCAZN3oBI2XRw+lQKuuG0jGrSQtZBBpeY7CMG6cQif4Wr0Opif9Ukr141FMMPOswThDJ+M0j3elQyuc07FKHUv7ixK0OlfnacKVuddwWeT+zMDAtecXch46pex1e1vh870OIcp93fXjRoTLXk/DKj45bwLvVsUAnvK9xGybQDUgLLne/Z4861Ls7HbmdCWeLO2/l6lWHKlzNXGu/OpT6cCTk5FuIo3jfeNfhKOfytKZruPDqFwF0qNSBkF0IIQ528IMgOtQOLsTDdqqOAr6B59Vy7FmBdcwC6YCn846MRQLYcM+D6VCfUCEOnHcqfagQ51ZWA8ixVfqxTupBbksC5Iu/nBAKynwxTaIo0Gp4J2NqGGzf+/48kyY4G8VpbN9cAudsq2KT+jUZ2rBMHIchp9paLjYy8g6itQSbYVpEe3lGDKrr4G0JNSqMK1gLSIdM9P1lkWFmurZjUvWfvDuBPOzO2EwHppWh+HnaEfhJIiMdoFH9GM8x5nlfmFQYlqB3Th9PBBqssX8df3dBuFqKwYoISqq0kgYu3Olm9gXzQn3lwoU7OZFHxWVl4eqAHkt2UlBjYFZ5LswtJgpBVWqfJ0lUnkIcWqDZpebPhvJeaMHexbxsX/NolGdBmn5LUCt1rdkMCnfSgggqnVcD/c4Q83BKigJKt1+9ChPulKQR8/FfTiuYAKz/3BpDxMZWTV6/AGLGEPwgyB6kaDgi+Yl4AaHFEbKGNG3gEOFOMB8gZY/mUARUiAgZCiIWW0rhACOAsIwAvLhD2zv44U7wHvjpYnsTJd/Jbz9uDdhWt0/x7E6DuiyuAn9upFSTuM04hH4Udr8PKS3lhnvS/gruVp3YPsm0tAnrOjNh3BOPEfHSB0pRgafjjxnXzJKV0BHqVUxXjt7uwlmuRoT2IN7sa9BvyDmpQdmv87wBk6IFYztN2Isw11wDHYxw31NOKfGOUJicfMytw51UGuHlvhOTsWWbzNM6AbmnpQ7bZLZeLCmlSttRTCvxoLzZUda/nNK4aRRYTpAj2vg9goT80JR4Wfr91FIVxEJ5oCV3Q5Ud5tfteDPMS/s0m9pOg22c0d4KKXWT2xmxraPaoxE20IR80hXacqm7dAivlLKo34H2u+sbOYClbHJSAdnFoyXDAF/O6NIEWLlSVQokgEFL2OH+Ajzcohvy/DqxQbfDF7i2Kt1FY5fBLoZn82HzVqFlXGzDrDBt0SpRa6K+kWPHnlGAfINqTdYP0nP/PBYnFHgOxwPd4eJ2oFudAMecv9WdIeacZXeM8ogo6usRUvKWdYJpXQuipUafY3iZ78hSByIHroxpVmHS9nvcyLlzTF93CFhrE+taAe4ko58MLjmZKPNsLs8ur9zFwlmZ2CfcOPNlxTwZ2NclEdcC2sfnofIk+0PWmIsabZVUJ0v7eENd6GKX51VPO1q3sfVxtx7ZBOlTc4XtwLoiLzk7G4fptfoIy+kPfbes4dWk+ye7xs4Vz6xPtb3G5O7e3ZPjb1WT3G+dXJ1Hvk35UOOeWaQ6k7Oze/PGlHkni2rev45Ng6xnvqM1IWmTkkWvRsMspY/Ny9b9taXdtOFve1o1Dep8daJ8l17k6crSY3dXt3Ms5oT/VVFO48YEOItnfv8XwfAc9/qPobJ/3xn8FfPZNj08fZrRZP7ZDXX1dZkP199VJwuO682sm6y20TkZz6br//n/WwiCIAiCIAiCIAiCIAiCIAiCIAiCIATnH0EpaAaMRrdFAAAAAElFTkSuQmCC;" vertex="1" parent="1">
          <mxGeometry x="425" y="740" width="70" height="70" as="geometry" />
        </mxCell>
      </root>
    </mxGraphModel>
  </diagram>
</mxfile>
